<svg width="84" height="85" viewBox="0 0 84 85" fill="none" xmlns="http://www.w3.org/2000/svg">
<rect width="84" height="85" fill="#1E1E1E"/>
<path d="M20 0.980469C8.97733 0.980469 0 9.9578 0 20.9805V64.9805C0 76.0031 8.97733 84.9805 20 84.9805H64C75.0227 84.9805 84 76.0031 84 64.9805V20.9805C84 9.9578 75.0227 0.980469 64 0.980469H20ZM20 4.98047H64C72.8613 4.98047 80 12.1191 80 20.9805V64.9805C80 73.8418 72.8613 80.9805 64 80.9805H20C11.1387 80.9805 4 73.8418 4 64.9805V20.9805C4 12.1191 11.1387 4.98047 20 4.98047ZM28.0977 15.0703C24.007 14.8936 20.9023 16.4478 18.9492 18.3164C17.9727 19.2507 17.2677 20.2504 16.7852 21.1836C16.3026 22.1168 15.9961 22.8862 15.9961 23.8867C15.9961 23.7976 15.9741 24.2654 15.9609 24.8086C15.9477 25.3518 15.9501 26.0841 16 26.9688C16.0999 28.7381 16.3998 31.1314 17.1953 33.9688C18.7863 39.6435 22.3689 47.0876 30.1406 54.8594C37.9124 62.6311 45.356 66.2131 51.0312 67.8047C53.8689 68.6005 56.2618 68.8999 58.0312 69C58.916 69.0501 59.6442 69.0522 60.1875 69.0391C60.7308 69.0259 61.2021 69.0039 61.1133 69.0039C62.1138 69.0039 62.8832 68.6974 63.8164 68.2148C64.7496 67.7323 65.7493 67.0273 66.6836 66.0508C68.5522 64.0977 70.1064 60.993 69.9297 56.9023C69.8458 54.9514 68.7626 53.2237 67.1641 52.1992C65.9287 51.4076 64.0109 50.1788 61.5078 48.5781C58.6036 46.7226 54.889 46.5901 51.8594 48.25L52.0312 48.1641L49.6758 49.1758L49.5039 49.2969C48.9314 49.6989 48.2223 49.7733 47.5781 49.5039C45.7736 48.7493 42.962 47.2667 40.3477 44.6523C37.7333 42.038 36.2507 39.2264 35.4961 37.4219C35.2267 36.7777 35.3011 36.0686 35.7031 35.4961L35.8242 35.3242L36.8359 32.9688L36.75 33.1406C38.4095 30.1117 38.2805 26.3972 36.4219 23.4922C34.8212 20.9891 33.5924 19.0713 32.8008 17.8359C31.7763 16.2374 30.0486 15.1542 28.0977 15.0703ZM27.9258 19.0664C28.4868 19.0905 29.0661 19.4188 29.4336 19.9922C30.226 21.2288 31.4554 23.1475 33.0547 25.6484C34.1161 27.3074 34.1907 29.4876 33.2422 31.2188L33.1953 31.3047L32.2305 33.5586L32.4297 33.1953C31.2477 34.8788 31.0101 37.065 31.8047 38.9648C32.7061 41.1203 34.4298 44.3908 37.5195 47.4805C40.6092 50.5702 43.8797 52.2939 46.0352 53.1953C47.935 53.9899 50.1212 53.7523 51.8047 52.5703L51.4414 52.7695L53.6953 51.8047L53.7812 51.7578C55.5116 50.8098 57.6918 50.8888 59.3516 51.9492V51.9453C61.8525 53.5446 63.7712 54.774 65.0078 55.5664C65.5812 55.9339 65.9095 56.5132 65.9336 57.0742C66.0648 60.1116 65.0099 62.0132 63.793 63.2852C63.1845 63.9211 62.5247 64.3827 61.9805 64.6641C61.4363 64.9454 60.9158 65.0039 61.1133 65.0039C60.7465 65.0039 60.5533 65.028 60.0938 65.0391C59.6342 65.0503 59.0183 65.0509 58.2578 65.0078C56.7369 64.9218 54.6375 64.6621 52.1094 63.9531C47.0531 62.5352 40.275 59.3375 32.9688 52.0312C25.6625 44.725 22.4643 37.9463 21.0469 32.8906C20.3381 30.3628 20.0781 28.2629 19.9922 26.7422C19.9492 25.9818 19.9498 25.3657 19.9609 24.9062C19.9721 24.4468 19.9961 24.2538 19.9961 23.8867C19.9961 24.0842 20.0546 23.5637 20.3359 23.0195C20.6173 22.4753 21.0789 21.8155 21.7148 21.207C22.9868 19.9901 24.8884 18.9352 27.9258 19.0664Z" fill="white"/>
</svg>
